<svg width="114" height="22" viewBox="0 0 114 22" fill="none" xmlns="http://www.w3.org/2000/svg">
<g clip-path="url(#clip0_15_1690)">
<path d="M52.4885 7.21874C52.4885 3.38681 49.9745 0.474356 44.7937 0.474356H34.3705V20.6154H39.2757V4.82727H44.8244C46.8785 4.82727 47.6138 5.99259 47.6138 7.34124C47.6138 8.72087 46.8475 9.85522 44.7934 9.85522H40.0417L46.7861 20.6154H52.3657C52.3657 20.6154 47.7669 13.3805 47.7979 13.3805C50.6493 12.7063 52.4885 10.7136 52.4885 7.21874ZM26.1547 0.474356H31.0599V20.6157H26.1547V0.474356ZM13.6164 13.0127H9.4886L12.5432 6.82026H12.6048L19.4717 20.6154H25.1125L14.8426 0.474356H10.4896L0.219727 20.6154H5.73768L7.40125 17.2434H15.6702L13.6164 13.0127ZM70.3927 10.1619C71.9565 9.30325 72.7842 7.92391 72.7842 5.9005C72.7842 2.65095 70.3623 0.474356 66.2851 0.474356H54.8189V20.6154H66.745C70.914 20.6154 73.6425 18.3774 73.6425 14.9747C73.6423 12.6145 72.3243 10.8364 70.3927 10.1619ZM59.7246 4.73546H66.2851C67.2662 4.73546 68.0325 5.50174 68.0325 6.51358C68.0325 7.52542 67.2662 8.29169 66.2541 8.29169H59.7243V4.73546H59.7246ZM66.4073 16.3847H59.7243V12.2768H66.4073C67.603 12.2768 68.5228 13.1355 68.5228 14.3002C68.5231 15.4957 67.603 16.3847 66.4073 16.3847ZM89.1237 11.7251C89.1237 14.7823 87.7134 16.4768 84.924 16.4768C82.165 16.4768 80.7547 14.7823 80.7547 11.7251V0.474356H75.7273V11.3573C75.7273 17.5807 79.0076 21.0449 84.924 21.0449C90.8405 21.0449 94.1514 17.5807 94.1514 11.3573V0.474356H89.1237V11.7251ZM107.241 8.47559C102.585 7.34181 101.57 7.23352 101.57 5.90022C101.57 4.86877 102.735 4.36739 104.697 4.36739C107.303 4.36739 110.078 5.02111 111.656 5.99231L113.22 1.8844C111.196 0.811447 108.223 0.0448914 104.758 0.0448914C99.5773 0.0448914 96.6648 2.62026 96.6648 6.08411C96.6648 9.81145 98.8403 11.3258 103.838 12.3993C107.729 13.2571 108.559 13.7923 108.559 14.8823C108.559 16.0664 107.486 16.5993 105.371 16.5993C102.306 16.5993 99.5309 15.8546 97.3086 14.6373L95.8064 18.9291C98.2283 20.2167 101.846 21.0446 105.494 21.0446C110.583 21.0446 113.617 18.6838 113.617 14.7291C113.618 11.5563 111.565 9.51813 107.241 8.47559Z" fill="black"/>
</g>
<defs>
<clipPath id="clip0_15_1690">
<rect width="113.398" height="21" fill="white" transform="translate(0.219727 0.0448914)"/>
</clipPath>
</defs>
</svg>
