<svg width="118" height="23" viewBox="0 0 118 23" fill="none" xmlns="http://www.w3.org/2000/svg">
<path d="M113.287 20.3758C113.287 21.3054 112.513 22.0801 111.583 22.0801H2.66761C1.73803 22.0801 0.963379 21.3054 0.963379 20.3758V2.71387C0.963379 1.78429 1.73803 1.00964 2.66761 1.00964H111.583C112.513 1.00964 113.287 1.78429 113.287 2.71387V20.3758Z" fill="white"/>
<path d="M2.66755 0.544861C1.42811 0.544861 0.498535 1.5519 0.498535 2.71388V20.3758C0.498535 21.5378 1.50558 22.5449 2.66755 22.5449H111.583C112.822 22.5449 113.752 21.5378 113.752 20.3758V2.71388C113.752 1.5519 112.745 0.544861 111.583 0.544861H2.66755ZM1.42811 20.3758V2.71388C1.42811 2.01669 1.97037 1.47444 2.66755 1.47444H111.583C112.28 1.47444 112.822 2.01669 112.822 2.71388V20.3758C112.822 21.073 112.28 21.6153 111.583 21.6153H2.66755C1.97037 21.6153 1.42811 21.073 1.42811 20.3758Z" fill="black"/>
<path d="M111.66 2.55896H94.5408V20.4533H111.66V2.55896Z" fill="white"/>
<path d="M94.3083 2.32654V20.6857H111.893V2.32654H94.3083ZM111.428 2.79133C111.428 3.25612 111.428 19.7561 111.428 20.2209C110.963 20.2209 95.2379 20.2209 94.7731 20.2209C94.7731 19.7561 94.7731 3.25612 94.7731 2.79133C95.2379 2.79133 110.963 2.79133 111.428 2.79133Z" fill="black"/>
<path d="M38.1465 2.55896H21.0267V20.4533H38.1465V2.55896Z" fill="black"/>
<path d="M20.7943 2.32654V20.6857H38.3788V2.32654H20.7943ZM37.8366 2.79133C37.8366 3.25612 37.8366 19.7561 37.8366 20.2209C37.3718 20.2209 21.6464 20.2209 21.1816 20.2209C21.1816 19.7561 21.1816 3.25612 21.1816 2.79133C21.7239 2.79133 37.4492 2.79133 37.8366 2.79133Z" fill="black"/>
<path d="M56.4281 2.55896H39.3083V20.4533H56.4281V2.55896Z" fill="black"/>
<path d="M39.0759 2.32654V20.6857H56.6604V2.32654H39.0759ZM56.1956 2.79133C56.1956 3.25612 56.1956 19.7561 56.1956 20.2209C55.7309 20.2209 40.0055 20.2209 39.5407 20.2209C39.5407 19.7561 39.5407 3.25612 39.5407 2.79133C40.0055 2.79133 55.7309 2.79133 56.1956 2.79133Z" fill="black"/>
<path d="M74.9422 2.55896H57.8225V20.4533H74.9422V2.55896Z" fill="black"/>
<path d="M57.5901 2.32654V20.6857H75.1746V2.32654H57.5901ZM74.6323 2.79133C74.6323 3.25612 74.6323 19.7561 74.6323 20.2209C74.1676 20.2209 58.4422 20.2209 57.9774 20.2209C57.9774 19.7561 57.9774 3.25612 57.9774 2.79133C58.4422 2.79133 74.1676 2.79133 74.6323 2.79133Z" fill="black"/>
<path d="M93.3788 2.55896H76.259V20.4533H93.3788V2.55896Z" fill="black"/>
<path d="M76.0266 2.32654V20.6857H93.6111V2.32654H76.0266ZM93.0689 2.79133C93.0689 3.25612 93.0689 19.7561 93.0689 20.2209C92.6041 20.2209 76.8787 20.2209 76.4139 20.2209C76.4139 19.7561 76.4139 3.25612 76.4139 2.79133C76.9562 2.79133 92.6815 2.79133 93.0689 2.79133Z" fill="black"/>
<path d="M19.7098 2.55896H2.59009V20.4533H19.7098V2.55896Z" fill="black"/>
<path d="M2.35767 2.32654V20.6857H19.9422V2.32654H2.35767ZM19.3999 2.79133C19.3999 3.25612 19.3999 19.7561 19.3999 20.2209C18.9351 20.2209 3.20978 20.2209 2.74499 20.2209C2.74499 19.7561 2.74499 3.25612 2.74499 2.79133C3.28724 2.79133 18.9351 2.79133 19.3999 2.79133Z" fill="black"/>
<path d="M11.4985 17.9744C7.85764 17.9744 5.92102 15.2632 5.92102 11.6223C5.92102 7.67161 8.24497 5.2702 11.4985 5.2702C14.5196 5.2702 15.6816 6.5871 16.5337 8.91105L13.4351 10.1505C12.9703 8.98851 12.583 8.29133 11.421 8.29133C10.0267 8.29133 9.40694 9.6857 9.40694 11.6998C9.40694 13.5589 10.0267 15.1082 11.4985 15.1082C12.583 15.1082 13.0478 14.566 13.6675 13.404L16.5337 14.9533C15.7591 16.4251 14.4421 17.9744 11.4985 17.9744Z" fill="white"/>
<path d="M30.6324 12.7843H28.6183L28.8507 12.0096C29.3155 10.4603 29.4704 9.76315 29.6253 8.91104C29.7803 9.76315 30.0127 10.3829 30.4 12.0096L30.6324 12.7843ZM35.8225 17.6646L31.3296 5.34766H27.9211L23.5056 17.5871H27.1465L27.8436 15.4181H31.562L32.2591 17.5871H35.8225V17.6646Z" fill="white"/>
<path d="M49.6112 9.5308C49.6112 10.3829 49.1464 10.9252 48.0619 10.9252H46.0478V8.2139H48.0619C49.2238 8.2139 49.6112 8.75616 49.6112 9.5308ZM53.252 17.6646L50.7731 13.0167C52.09 12.397 53.0196 11.235 53.0196 9.45334C53.0196 6.50968 51.083 5.42517 48.2168 5.42517H42.7168V17.6646H46.0478V13.559H47.4422L49.4562 17.6646H53.252Z" fill="white"/>
<path d="M64.8718 8.29137V9.99559H68.7451V12.8618H64.8718V17.6646H61.4634V5.42517H71.1465V8.29137H64.8718Z" fill="white"/>
<path d="M85.7098 12.8618H83.6957L83.9281 12.0871C84.3929 10.5378 84.5478 9.84065 84.7027 8.98854C84.8577 9.84065 85.09 10.4604 85.4774 12.0871L85.7098 12.8618ZM90.8224 17.7421L86.407 5.50262H82.9985L78.583 17.7421H82.2239L82.921 15.573H86.5619L87.2591 17.7421H90.8224Z" fill="white"/>
<path d="M104.844 20.6082L104.301 19.7561C103.837 18.9815 103.372 18.2068 102.984 17.5097C102.675 18.1294 102.21 18.9815 101.668 19.7561L101.048 20.6082H96.8647L100.893 15.0308L96.6323 8.98853H100.97L101.745 10.1505C102.21 10.9251 102.752 11.6998 103.062 12.397C103.372 11.7773 103.914 10.9251 104.379 10.1505L105.153 8.98853H109.337L105.076 14.9533L109.027 20.6082H104.844Z" fill="black"/>
<path d="M117.703 2.24907C117.703 2.71386 117.548 3.10119 117.238 3.41105C116.928 3.72091 116.541 3.87584 116.076 3.87584C115.611 3.87584 115.224 3.72091 114.914 3.41105C114.604 3.10119 114.449 2.71386 114.449 2.24907C114.449 1.78429 114.604 1.39696 114.914 1.0871C115.224 0.777244 115.611 0.622314 116.076 0.622314C116.541 0.622314 116.928 0.777244 117.238 1.0871C117.548 1.39696 117.703 1.78429 117.703 2.24907ZM117.47 2.24907C117.47 1.86175 117.315 1.55189 117.083 1.24203C116.851 0.932174 116.541 0.854709 116.153 0.854709C115.766 0.854709 115.456 1.00964 115.146 1.24203C114.837 1.47443 114.759 1.86175 114.759 2.24907C114.759 2.6364 114.914 2.94626 115.146 3.25612C115.379 3.56598 115.766 3.64344 116.076 3.64344C116.463 3.64344 116.773 3.48851 117.006 3.25612C117.315 2.94626 117.47 2.6364 117.47 2.24907ZM117.006 1.86175C117.006 2.01668 116.928 2.17161 116.851 2.32654C116.696 2.404 116.541 2.48147 116.386 2.48147L117.006 3.25612H116.618L115.999 2.48147H115.689V3.25612H115.379V1.24203H116.308C116.541 1.24203 116.696 1.3195 116.773 1.39696C116.928 1.55189 117.006 1.62936 117.006 1.86175ZM116.696 1.86175C116.696 1.62936 116.541 1.55189 116.231 1.55189H115.689V2.17161H116.308C116.541 2.17161 116.696 2.01668 116.696 1.86175Z" fill="black"/>
<path d="M114.991 1.0871C114.682 1.39696 114.527 1.78429 114.527 2.24907C114.527 2.71386 114.682 3.10119 114.991 3.41105C115.301 3.72091 115.689 3.87584 116.153 3.87584C116.618 3.87584 117.005 3.72091 117.315 3.41105C117.625 3.10119 117.78 2.71386 117.78 2.24907C117.78 1.78429 117.625 1.39696 117.315 1.0871C117.005 0.777244 116.618 0.622314 116.153 0.622314C115.689 0.622314 115.301 0.777244 114.991 1.0871ZM114.991 3.41105C114.682 3.10119 114.527 2.71386 114.527 2.24907C114.527 1.78429 114.682 1.39696 114.991 1.0871C115.301 0.777244 115.689 0.622314 116.076 0.622314C116.541 0.622314 116.851 0.777244 117.16 1.0871C117.47 1.39696 117.625 1.78429 117.625 2.24907C117.625 2.71386 117.47 3.10119 117.16 3.41105C116.851 3.72091 116.463 3.87584 116.076 3.87584C115.689 3.87584 115.301 3.72091 114.991 3.41105Z" fill="black"/>
<path d="M115.146 1.24206C114.914 1.55192 114.759 1.86178 114.759 2.2491C114.759 2.63643 114.914 2.94629 115.146 3.25615C115.379 3.566 115.766 3.64347 116.153 3.64347C116.541 3.64347 116.851 3.48854 117.083 3.25615C117.315 2.94629 117.47 2.63643 117.47 2.2491C117.47 1.86178 117.315 1.55192 117.083 1.24206C116.851 0.932201 116.463 0.854736 116.153 0.854736C115.766 0.854736 115.379 1.00967 115.146 1.24206ZM115.146 3.25615C114.914 3.02375 114.759 2.63643 114.759 2.32657C114.759 1.93924 114.914 1.62938 115.146 1.31953C115.379 1.08713 115.689 0.932201 116.076 0.932201C116.386 0.932201 116.696 1.08713 117.006 1.31953C117.238 1.62938 117.393 1.93924 117.393 2.2491C117.393 2.63643 117.238 2.94629 117.006 3.25615C116.773 3.48854 116.463 3.64347 116.076 3.64347C115.766 3.64347 115.456 3.48854 115.146 3.25615Z" fill="black"/>
<path d="M115.379 1.242V3.25609H115.689C115.689 3.25609 115.689 2.55891 115.689 2.48144C115.766 2.48144 115.999 2.48144 115.999 2.48144L116.541 3.25609H116.928H117.006C117.006 3.25609 116.463 2.55891 116.386 2.48144C116.541 2.48144 116.696 2.40398 116.773 2.32651C116.928 2.24905 117.006 2.09412 117.006 1.86172C117.006 1.70679 116.928 1.55186 116.851 1.4744C116.696 1.39693 116.541 1.31947 116.308 1.31947H115.379V1.242ZM116.386 1.31947C116.618 1.31947 116.773 1.39693 116.851 1.4744C116.928 1.55186 117.006 1.70679 117.006 1.86172C117.006 2.01665 116.928 2.17158 116.851 2.24905C116.696 2.32651 116.618 2.40398 116.463 2.40398H116.386C116.386 2.40398 116.928 3.10116 117.006 3.17862C116.928 3.17862 116.696 3.17862 116.696 3.17862L116.154 2.40398H115.766C115.766 2.40398 115.766 3.10116 115.766 3.17862C115.689 3.17862 115.611 3.17862 115.534 3.17862C115.534 3.10116 115.534 1.31947 115.534 1.31947C115.456 1.31947 116.386 1.31947 116.386 1.31947Z" fill="black"/>
<path d="M115.689 1.47443V2.17161H116.308C116.618 2.17161 116.773 2.01668 116.773 1.78429C116.773 1.70682 116.696 1.62936 116.618 1.55189C116.541 1.47443 116.386 1.47443 116.231 1.47443H115.689ZM116.231 1.55189C116.386 1.55189 116.463 1.55189 116.541 1.62936C116.618 1.70682 116.618 1.70682 116.618 1.86175C116.618 2.09414 116.463 2.17161 116.231 2.17161H115.689C115.689 2.09415 115.689 1.62936 115.689 1.62936C115.766 1.55189 116.231 1.55189 116.231 1.55189Z" fill="black"/>
</svg>
