<svg width="160" height="25" viewBox="0 0 160 25" fill="none" xmlns="http://www.w3.org/2000/svg">
<g clip-path="url(#clip0_16_2272)">
<path d="M2.55061 12.3876H5.11501L3.56042 19.7156H7.65407L7.27474 21.5094H0.617432L2.55061 12.3876Z" fill="black"/>
<path d="M10.6485 13.3981C12.0503 12.2356 13.8195 12.1349 14.4895 12.1349C18.1286 12.1349 18.5578 14.75 18.0779 16.9739C17.3073 20.6129 14.4895 21.7241 12.3164 21.7241C9.89058 21.7241 7.9194 20.3856 8.63931 16.9865C8.766 16.3799 9.25861 14.5607 10.6485 13.3981ZM12.7456 19.8669C14.5521 19.8669 15.2094 18.199 15.4747 16.9358C15.74 15.6592 15.5761 15.028 15.386 14.6241C15.1207 14.1188 14.5648 13.9668 14.0088 13.9668C12.341 13.9668 11.583 15.4066 11.2417 16.9731C10.9384 18.4263 11.0651 19.8669 12.7456 19.8669Z" fill="black"/>
<path d="M25.6689 15.2553C25.7569 14.3334 25.1763 13.9921 24.4557 13.9921C22.9264 13.9921 22.1685 15.3947 21.8145 17.0625C21.6878 17.6185 21.2213 19.9176 23.1791 19.9176C24.5183 19.9176 24.8596 18.9443 24.9863 18.591H27.614C26.9947 21.4468 24.0383 21.6868 22.8504 21.6868C21.9658 21.6868 20.4373 21.5355 19.6414 20.4735C18.8708 19.4123 19.0094 17.9598 19.2121 17.0119C19.4774 15.7606 20.0334 14.5101 21.0946 13.5375C22.2572 12.4763 23.5204 12.199 24.8469 12.199C26.3255 12.199 27.3741 12.553 27.93 13.3109C28.4987 14.0935 28.3347 14.9155 28.2714 15.256H25.6689V15.2553Z" fill="black"/>
<path d="M30.4184 12.3876H32.9828L32.1362 16.3933L35.9012 12.3876H38.8956L34.9033 16.4052L37.2158 21.5094H34.0828L32.0863 16.6579L31.0504 21.5094H28.4852L30.4184 12.3876Z" fill="black"/>
<path d="M40.1075 12.3876H42.66L41.9147 15.9506H44.9591L45.7051 12.3876H48.2695L46.3363 21.5094H43.7711L44.5544 17.8204H41.4966L40.7134 21.5094H38.1743L40.1075 12.3876Z" fill="black"/>
<path d="M49.9864 12.4129H56.8345L56.4686 14.1568H52.1223L51.7176 16.052H55.8113L55.4319 17.7958H51.3383L50.9336 19.7417H55.3813L55.0019 21.5102H48.0532L49.9864 12.4136V12.4129Z" fill="black"/>
<path d="M58.4123 12.4129H65.2604L64.8945 14.1568H60.5482L60.1435 16.052H64.2372L63.8578 17.7958H59.7642L59.3595 19.7417H63.8072L63.4278 21.5102H56.4791L58.4123 12.4136V12.4129Z" fill="black"/>
<path d="M66.8887 12.3876H70.7424C71.829 12.3876 73.2561 12.5016 74.0647 13.1455C75.2147 14.0681 75.2653 15.5713 74.9747 16.9232C74.5454 18.945 73.5848 20.4363 71.589 21.1562C70.5785 21.5102 69.4665 21.5102 68.8346 21.5102H64.9563L66.8895 12.3883L66.8887 12.3876ZM67.9246 19.7529H69.0112C70.6917 19.7402 71.9169 19.0203 72.3723 16.8978C72.9536 14.1307 70.8818 14.1307 70.1112 14.1307L69.1126 14.118L67.9246 19.7529Z" fill="black"/>
<path d="M81.4919 12.3876H85.4723L85.6869 18.5657L88.4287 12.3876L92.4083 12.3749L90.4751 21.5102H88.0873L89.8312 13.8535L86.0409 21.5102H83.7664L83.3244 13.7902L81.7453 21.5102H79.5594L81.4926 12.3884L81.4919 12.3876Z" fill="black"/>
<path d="M97.031 12.3876H100.114L101.782 21.5094H98.927L98.687 19.6776H95.0353L94.0247 21.5094H91.4976L97.0318 12.3876H97.031ZM98.4589 17.9971L98.0923 14.1687H98.0543L95.9825 17.9971H98.4589Z" fill="black"/>
<path d="M104.673 12.3876H108.892C110.535 12.3876 111.142 12.4889 111.558 13.0449C111.785 13.3229 112.025 13.8281 111.823 14.8134C111.609 15.8112 111.116 16.2413 110.624 16.5066C109.966 16.8725 109.398 16.9358 109.133 16.9738L109.12 17.0245C110.889 17.0752 110.814 17.8592 110.725 19.261C110.674 19.8803 110.598 20.8655 110.674 21.5102H107.933C107.895 20.9542 107.983 20.2589 108.072 19.4503C108.185 18.3511 108.236 17.9471 107.099 17.9471H106.037L105.279 21.5102H102.74L104.674 12.3883L104.673 12.3876ZM106.391 16.3046H107.339C107.895 16.3046 108.173 16.3046 108.401 16.2286C108.994 16.052 109.222 15.4833 109.285 15.1927C109.525 14.0681 108.539 14.0681 107.807 14.0681H106.859L106.391 16.3039V16.3046Z" fill="black"/>
<path d="M115.499 14.1941H112.719L113.099 12.3876H121.272L120.893 14.1941H118.051L116.496 21.5094H113.944L115.498 14.1941H115.499Z" fill="black"/>
<path d="M122.156 12.3876H124.759L122.826 21.5094H120.223L122.156 12.3876Z" fill="black"/>
<path d="M126.451 12.3876H129.938L131.581 19.185L132.996 12.3876H135.207L133.274 21.5094H129.863L128.22 14.4221L126.743 21.5094H124.519L126.452 12.3876H126.451Z" fill="black"/>
<path d="M149.206 9.93351L151.936 0.693906C151.969 0.575411 151.819 0.492689 151.736 0.582864L143.058 9.93351H105.148C104.995 9.93351 104.988 10.166 105.141 10.1683L142.204 10.9798L144.54 11.0313L146.779 11.0804L146.918 9.93351H144.138L148.819 5.66919L148.005 9.93351L146.814 16.1735L145.245 24.4048C145.217 24.5523 145.433 24.603 145.474 24.4577L147.608 15.7837L159.434 10.1563C159.545 10.1012 159.507 9.93351 159.382 9.93351H149.207H149.206ZM148.88 11.1266L153.281 11.2228L147.996 14.3618L148.879 11.1266H148.88Z" fill="black"/>
<path d="M142.476 11.5582L141.73 11.5328L137.361 15.9932C137.258 16.102 137.412 16.2614 137.524 16.1616L142.476 11.5574L142.476 11.5582Z" fill="black"/>
<path d="M146.148 16.4738L146.281 15.3045L136.086 21.2844C135.957 21.3619 136.063 21.5571 136.198 21.4908L146.148 16.4731V16.4738Z" fill="black"/>
</g>
<defs>
<clipPath id="clip0_16_2272">
<rect width="158.881" height="24" fill="white" transform="translate(0.617432 0.544861)"/>
</clipPath>
</defs>
</svg>
