<svg width="15" height="16" viewBox="0 0 15 16" fill="none" xmlns="http://www.w3.org/2000/svg">
<path d="M6.97658 0.50059L6.37052 4.29122C6.17218 5.52538 5.32369 6.48249 4.25482 6.70917L0.938017 7.40181C0.353995 7.52775 0.353995 8.48485 0.938017 8.59819L4.25482 9.29083C5.33471 9.51751 6.17218 10.4872 6.37052 11.7088L6.97658 15.4994C7.08678 16.1669 7.92424 16.1669 8.02342 15.4994L8.62948 11.7088C8.82782 10.4746 9.67631 9.51751 10.7452 9.29083L14.062 8.59819C14.646 8.47225 14.646 7.51515 14.062 7.40181L10.7452 6.70917C9.66529 6.48249 8.82782 5.51279 8.62948 4.29122L8.02342 0.50059C7.91322 -0.166863 7.07576 -0.166863 6.97658 0.50059Z" fill="url(#paint0_linear_303_12045)"/>
<defs>
<linearGradient id="paint0_linear_303_12045" x1="11.1198" y1="12.1495" x2="2.91915" y2="4.97395" gradientUnits="userSpaceOnUse">
<stop stop-color="#FCA326"/>
<stop offset="0.786458" stop-color="#A686F2"/>
</linearGradient>
</defs>
</svg>
